<svg xmlns="http://www.w3.org/2000/svg" width="20" height="20" viewBox="0 0 533.5 544.3">
  <path fill="#4285F4" d="M533.5 278.4c0-18.5-1.5-37-4.8-55.1H272.1v104.4h146.5c-6.3 34.2-25.2 63.2-53.7 82.4v68h86.9c51-47 81.7-116.3 81.7-199.7z"/>
  <path fill="#34A853" d="M272.1 544.3c72.7 0 133.7-24.1 178.3-65.1l-86.9-68c-24.1 16.2-55 25.6-91.4 25.6-70.2 0-129.7-47.5-151-111.5H31.4v69.9c44.7 89 136.2 149.1 240.7 149.1z"/>
  <path fill="#FBBC05" d="M121.1 325.3c-10.5-31.5-10.5-65.4 0-96.9V158.5H31.4c-43.4 85.7-43.4 186.3 0 272l89.7-69.2z"/>
  <path fill="#EA4335" d="M272.1 107.7c39.5-.6 77.3 13.9 106.2 39.9l79.3-79.3C405.7 24.1 344.7 0 272.1 0 167.5 0 76 60.1 31.4 149.1l89.7 69.4c21.2-63.8 80.7-111.3 151-111.3z"/>
</svg>